<svg width="144" height="40" viewBox="0 0 144 40" fill="none" xmlns="http://www.w3.org/2000/svg">
<path fill-rule="evenodd" clip-rule="evenodd" d="M0 20C0 21.3842 0.268885 22.7159 0.766684 23.9577C1.11079 23.5473 1.55183 23.2197 2.03857 22.9995L5.99105 21.2134C6.01038 21.2046 6.02998 21.1965 6.04982 21.189L6.11612 21.164C6.70526 20.9168 7 20.4508 7 20.0103V19.9897C7 19.5492 6.70526 19.0832 6.11611 18.836L6.04983 18.811C6.02998 18.8035 6.01038 18.7954 5.99105 18.7866L2.03898 17.0007C1.55223 16.7805 1.11079 16.4527 0.766685 16.0423C0.268885 17.2841 0 18.6158 0 20ZM12.3111 32C7.40816 32 3.17131 29.2011 1.19179 25.1543C1.2118 25.1071 1.23353 25.0607 1.25691 25.0151C1.50142 24.5379 1.92596 24.148 2.45078 23.9106L6.40285 22.1246L6.48446 22.0938C6.96662 21.8954 7.36806 21.5755 7.63639 21.1787C8.17325 23.2069 10.0629 24.7055 12.3111 24.7055C13.6489 24.7055 14.8606 24.1669 15.7234 23.3071L15.8397 23.1937L17.4489 21.5591L23.1294 25.7354C21.0356 29.4677 16.9739 32 12.3111 32ZM7.63639 18.8213C7.36806 18.4245 6.96662 18.1046 6.48446 17.9062L6.40285 17.8754L2.45078 16.0894C1.92596 15.852 1.50141 15.4621 1.25691 14.9849C1.23353 14.9393 1.2118 14.8929 1.19178 14.8457C3.17131 10.7989 7.40815 8 12.3111 8C16.9739 8 21.0356 10.5323 23.1294 14.2646L17.4489 18.4409L15.8397 16.8063L15.7234 16.6929C14.8606 15.8331 13.6489 15.2945 12.3111 15.2945C10.0629 15.2945 8.17325 16.7931 7.63639 18.8213ZM40.4717 17.6C39.8512 16.9764 38.9691 16.589 37.9997 16.589C36.0707 16.589 34.5003 18.1197 34.5003 20C34.5003 21.8803 36.0707 23.411 37.9997 23.411C38.9691 23.411 39.8512 23.0236 40.4717 22.4L40.5589 22.315L41.7222 21.1339L45.842 24.1575C44.3298 26.8598 41.3829 28.6929 38.0094 28.6929C33.085 28.6929 29.0911 24.8 29.0911 20C29.0911 15.2 33.085 11.3071 38.0094 11.3071C41.3829 11.3071 44.3298 13.1402 45.842 15.8425L41.7222 18.8661L40.5589 17.685L40.4717 17.6ZM61.071 13.1874C60.3924 12.526 59.6169 12.063 58.6476 11.7795C57.6782 11.4961 56.6119 11.3071 55.4486 11.3071C53.8007 11.3071 52.4435 11.5906 51.3772 12.1575C50.2139 12.6299 49.0507 13.4709 47.8874 14.6047L50.6017 18.2709C51.2803 17.6094 51.9588 17.1465 52.6374 16.7685C53.316 16.3906 54.0915 16.2016 54.867 16.2016C55.8364 16.2016 56.5149 16.485 56.9027 16.863C57.2904 17.2409 57.4843 17.7984 57.4843 18.3654V18.6488H53.8976C51.765 18.6488 50.117 19.1213 48.9538 19.9622C47.6936 20.8126 47.1119 22.0315 47.1119 23.6283C47.1119 24.2898 47.2089 24.9417 47.4997 25.6031C47.6936 26.1701 48.0813 26.7276 48.566 27.2C49.0507 27.6724 49.6323 28.0504 50.4078 28.3244C51.0864 28.6079 51.9588 28.7024 52.9282 28.7024C53.9945 28.7024 54.867 28.5134 55.7394 28.2299C56.6119 27.9465 57.2904 27.5685 57.8721 27.011V28.7024H63.2037V18.7339C63.2037 17.515 63.0098 16.4756 62.622 15.5402C62.2343 14.5953 61.7496 13.7543 61.071 13.1874ZM57.2904 22.211C57.2904 22.9669 56.9996 23.6189 56.5149 23.9969C56.0302 24.4693 55.4486 24.6583 54.6731 24.6583C54.1884 24.6583 53.7037 24.5638 53.4129 24.2803C53.1221 24.0913 52.9282 23.7134 52.9282 23.3449C52.9282 22.4945 53.4129 22.126 54.4792 22.126H57.2904V22.211ZM75.9025 18.9228C76.4842 19.1969 77.0658 19.5748 77.4536 19.9528C77.8413 20.3307 78.229 20.8032 78.4132 21.3795L78.4213 21.4032C78.6125 21.962 78.801 22.5131 78.801 23.1654C78.801 23.685 78.7331 24.1669 78.6071 24.6394C78.452 25.263 78.1515 25.8488 77.7444 26.3496C77.7007 26.4016 77.6571 26.4512 77.6135 26.5008L77.613 26.5013L77.6126 26.5018C77.5693 26.5511 77.5259 26.6004 77.4826 26.652C77.1046 27.0866 76.649 27.474 76.1352 27.7575C75.6893 28.0126 75.2046 28.211 74.6423 28.3339C73.7699 28.6173 72.8005 28.7118 71.8311 28.7118C70.2801 28.7118 68.923 28.4283 67.5659 27.8614C66.3057 27.2945 65.2393 26.5386 64.4638 25.5087L67.1781 22.126C67.8567 22.778 68.6322 23.2504 69.4077 23.6283C70.1832 24.0063 71.0556 24.1953 71.8311 24.1953C72.2189 24.1953 72.6066 24.1008 72.8975 24.0063C73.1883 23.9118 73.3821 23.7228 73.3821 23.4394C73.3821 23.2504 73.2852 23.0614 73.0913 22.9669L72.3158 22.589L70.3771 21.8331C69.936 21.6719 69.5243 21.4772 69.1281 21.2899L69.1279 21.2898L69.127 21.2893C68.9663 21.2133 68.8081 21.1386 68.6516 21.0677C68.3801 20.9449 68.1184 20.8126 67.8761 20.652C67.4204 20.3591 66.9939 20.0567 66.6934 19.7638C66.3057 19.3858 65.9179 18.8283 65.724 18.3559L65.7159 18.3322C65.5248 17.7734 65.3363 17.2223 65.3363 16.5701C65.3363 15.7197 65.5302 14.9732 65.821 14.4063C66.1118 13.7449 66.5965 13.1874 67.1781 12.715C67.7597 12.252 68.4383 11.9685 69.3107 11.685C70.1832 11.4016 71.0556 11.3071 72.122 11.3071C73.3822 11.3071 74.5454 11.4961 75.6117 11.874C76.678 12.252 77.6474 12.9039 78.5199 13.7543L75.7087 17.222C74.5454 16.2866 73.3822 15.8142 72.122 15.8142C71.3465 15.8142 70.9587 16.0031 70.9587 16.4756C70.9587 16.6646 71.0556 16.8535 71.2495 16.948C71.2931 16.9693 71.3415 16.9953 71.3949 17.0239C71.579 17.1227 71.8213 17.2527 72.122 17.326L73.8668 17.9874C74.4645 18.1986 75.0046 18.4715 75.4871 18.7153L75.4877 18.7156C75.6311 18.788 75.7693 18.8579 75.9025 18.9228ZM95.0187 13.2157C94.4371 12.5449 93.7585 12.0724 92.983 11.789C92.2075 11.5055 91.3351 11.3165 90.3657 11.3165C89.3963 11.3165 88.6208 11.411 87.8453 11.6945C87.2055 11.9685 86.5657 12.3276 86.0035 12.7717V8H80.0903V28.6929H86.0035V18.9795C86.0035 18.2142 86.1974 17.6472 86.682 17.1654C87.0698 16.6929 87.6514 16.4945 88.4269 16.4945C89.2024 16.4945 89.7841 16.6835 90.2688 17.1654C90.7535 17.6472 90.9473 18.2142 90.9473 18.9795V28.6929H96.8605V18.1669C96.8605 17.2126 96.6667 16.2583 96.3759 15.3984C95.9881 14.548 95.6003 13.7827 95.0187 13.2157ZM115.579 11.9685C116.743 11.4961 117.809 11.3071 118.972 11.3071C121.008 11.3071 122.656 11.9685 123.819 13.1969C124.982 14.4252 125.564 16.126 125.564 18.1102V28.6929H119.651V18.8661C119.651 17.5622 118.565 16.5039 117.227 16.5039C115.89 16.5039 114.804 17.5622 114.804 18.8661V28.6929H108.891V18.8661C108.891 17.5622 107.805 16.5039 106.467 16.5039C105.129 16.5039 104.044 17.5622 104.044 18.8661V28.6929H98.1305V11.3071H103.462V13.0079C104.044 12.5354 104.722 12.063 105.498 11.7795C106.273 11.4961 107.146 11.3071 108.212 11.3071C109.278 11.3071 110.248 11.4961 111.023 11.874C111.896 12.252 112.574 12.7244 113.156 13.4803C113.834 12.8189 114.61 12.3465 115.579 11.9685ZM143.827 17.3638C143.73 16.9669 143.614 16.5701 143.459 16.2016C143.071 15.2661 142.538 14.3685 141.811 13.6598C141.568 13.4236 141.287 13.1968 141.006 12.989C140.87 12.885 140.735 12.7905 140.589 12.6961C140.589 12.6961 140.58 12.6961 140.58 12.6866C140.114 12.3843 139.61 12.1291 139.058 11.9213C138.108 11.4961 136.993 11.3165 135.791 11.3165C135.767 11.3165 135.742 11.3189 135.718 11.3213C135.694 11.3236 135.67 11.326 135.645 11.326C135.612 11.326 135.58 11.3236 135.549 11.3213C135.517 11.3189 135.486 11.3165 135.452 11.3165C132.253 11.3165 129.471 13.0929 127.987 15.7197C127.969 15.7552 127.947 15.787 127.926 15.8174C127.914 15.8355 127.901 15.8532 127.89 15.8709C127.886 15.8756 127.883 15.8827 127.881 15.8898C127.878 15.8968 127.876 15.9039 127.871 15.9087L127.871 15.9096C127.754 16.1266 127.638 16.3436 127.522 16.5795C127.047 17.685 126.853 18.7905 126.844 19.9811V20.0472V20.0567C126.844 21.2756 127.037 22.5039 127.522 23.5339C127.91 24.5638 128.588 25.5087 129.461 26.2551C130.236 27.011 131.303 27.5685 132.476 28.0409C133.649 28.5134 134.909 28.7024 136.363 28.7024C138.893 28.7024 141.122 27.9465 143.168 26.4441L141.026 22.589C140.347 22.9669 139.649 23.2976 138.883 23.5244C138.088 23.7606 137.332 23.9024 136.547 23.9024C135.578 23.9024 134.802 23.7134 134.114 23.4299C133.426 23.1465 132.951 22.674 132.66 22.022H143.643L143.895 20.1795C144.04 19.2441 144.05 18.2803 143.827 17.3638ZM132.427 18.3937C132.65 16.948 133.862 15.8425 135.345 15.8425C137.197 15.8425 138.117 16.948 138.282 18.3937H132.427Z" fill="#49AAFF"/>
</svg>
