<svg width="484" height="266" viewBox="0 0 484 266" fill="none" xmlns="http://www.w3.org/2000/svg">
<path d="M48.2446 264V149.048C48.2522 137.355 52.9007 126.143 61.1684 117.877C69.4361 109.611 80.6462 104.968 92.3347 104.968H126.864" stroke="#92CCFF" stroke-width="3" stroke-linecap="round" stroke-linejoin="round"/>
<path d="M176.6 163.446C176.6 163.446 180.363 174.719 180.914 180.177" stroke="#92CCFF" stroke-width="3" stroke-linecap="round" stroke-linejoin="round"/>
<path d="M222.918 159.364C222.581 166.461 222.698 173.571 223.27 180.653" stroke="#92CCFF" stroke-width="3" stroke-linecap="round" stroke-linejoin="round"/>
<path d="M258.339 123.561C259.651 124.915 260.158 143.657 272.014 143.435" stroke="#92CCFF" stroke-width="3" stroke-linecap="round" stroke-linejoin="round"/>
<path d="M129.691 130.286C124.639 132.51 117.354 136.833 111.494 145.787C119.754 142.403 148.175 167.756 168.321 162.005C158.955 161.014 138.882 146.341 129.691 130.286Z" fill="#92CCFF" stroke="#92CCFF" stroke-width="3" stroke-linecap="round" stroke-linejoin="round"/>
<path d="M147.082 87.6366C121.957 99.6018 121.612 116.419 130.152 131.042C125.669 131.749 114.822 137.86 91.8656 170.289C58.8162 216.973 60.4012 260.534 124.687 261.644" stroke="#92CCFF" stroke-width="3" stroke-linecap="round" stroke-linejoin="round"/>
<path d="M247.529 191.495V191.311C323.268 198.513 321.071 165.507 313.146 132.326L293.252 66.516C290.32 60.1164 287.698 62.8563 286.595 60.8553C284.043 56.1808 283.029 54.129 283.029 54.129C273.722 62.0159 255.134 58.5688 255.134 58.5688C255.134 58.5688 254.975 60.2718 254.846 65.479C254.716 70.6862 248.918 69.9187 249.599 76.8384L258.317 123.557L234.095 118.391C232.545 109.908 228.596 97.0362 219.099 88.8987" stroke="#92CCFF" stroke-width="3" stroke-linecap="round" stroke-linejoin="round"/>
<path d="M251 264V236" stroke="#92CCFF" stroke-width="3" stroke-linecap="round" stroke-linejoin="round"/>
<path d="M245.649 121.573C242.127 120.07 237.429 119.508 234.355 119C234.935 122.014 235.189 125.084 235.114 128.155C234.451 143.989 228.434 150.169 227 156C245.497 148.982 246.939 130.413 245.649 121.573Z" fill="#92CCFF" stroke="#92CCFF" stroke-width="3" stroke-linecap="round" stroke-linejoin="round"/>
<path d="M215.272 219.343C214.845 223.055 214.023 224.615 205.657 229.08C203.523 230.219 199.025 232.692 193 235.827C194.249 251.851 194.926 263.637 194.926 263.637L220 264C220 264 219.307 237.213 218.764 210C217.374 212.919 215.528 217.084 215.272 219.343Z" fill="#DBEEFF"/>
<path d="M218.211 159.513C218.528 145.848 213.298 132.443 208.242 123.475C207.424 135.951 204.755 150.412 201.934 155.127C188.62 145.889 178.635 140.593 170.653 136.376C165.61 128.241 161.353 120.989 159.514 115.728C159.54 114.932 159.565 114.123 159.59 113.311L158.722 113.397C160.941 120.713 165.727 131.114 175.636 145.087C177.66 147.45 179.515 149.953 181.187 152.578C183.551 156.285 185.72 166.772 187.606 179.85C198.627 178.319 207.167 178.017 208.717 180.367L218.294 182.2C217.939 163.934 218.043 166.972 218.211 159.513Z" fill="#DBEEFF"/>
<path d="M230.96 205.747L216.23 208.763" stroke="#92CCFF" stroke-width="3" stroke-linecap="round" stroke-linejoin="round"/>
<path d="M248.439 226.909C249.676 231.666 252.408 240.818 254.462 240.691C257.378 240.51 255.819 222.241 255.413 216.634C255.213 213.758 253.194 204.504 251.546 199.826C249.393 193.706 239.583 175.068 219.631 181.867L205.218 185.397" stroke="#92CCFF" stroke-width="3" stroke-linecap="round" stroke-linejoin="round"/>
<path d="M231.756 202.03C231.439 205.274 229.537 212.096 232.019 216.577" stroke="#92CCFF" stroke-width="3" stroke-linecap="round" stroke-linejoin="round"/>
<path d="M251.067 216.279C251.067 216.279 249.51 229.528 245.085 230.549C240.66 231.57 240.378 227.835 240.378 227.835" stroke="#92CCFF" stroke-width="3" stroke-linecap="round" stroke-linejoin="round"/>
<path d="M245.757 215.825C245.757 215.825 243.367 227.505 238.876 228.193C234.384 228.881 234.384 225.158 234.384 225.158" stroke="#92CCFF" stroke-width="3" stroke-linecap="round" stroke-linejoin="round"/>
<path d="M239.205 215.105C239.205 215.105 236.102 229.106 231.119 223.798C226.136 218.489 226.662 215.784 226.662 215.784C226.662 215.784 229.058 211.937 232.9 218.08" stroke="#92CCFF" stroke-width="3" stroke-linecap="round" stroke-linejoin="round"/>
<path d="M215.516 216.228C204.311 207.133 200.51 184.227 205.246 179.213C205.436 177.627 209.075 180.307 211.269 180.551C216.562 181.141 218.845 181.303 218.845 181.303C216.699 187.905 219.089 195.891 221.545 201.57C222.599 204.08 223.819 206.517 225.197 208.864C224.776 209.077 223.073 209.917 219.025 211.693C216.692 212.73 216.198 214.481 215.516 216.228Z" fill="#92CCFF"/>
<path d="M126.864 181.832C131.812 180.193 145.136 177.922 149.199 187.309" stroke="#92CCFF" stroke-width="3" stroke-linecap="round" stroke-linejoin="round"/>
<path d="M126.864 192.57C126.864 192.57 203.75 172.813 208.72 180.355L220.395 206.47C220.395 206.47 215.735 214.921 215.323 218.457C214.911 221.993 214.09 223.474 205.829 227.724C197.569 231.973 154.411 256.776 123.476 261.643" stroke="#92CCFF" stroke-width="3" stroke-linecap="round" stroke-linejoin="round"/>
<path d="M160.091 98.0541C159.923 103.001 159.701 109.699 159.514 115.721C161.353 120.982 165.61 128.235 170.653 136.369C178.635 140.587 188.611 145.883 201.934 155.121C204.787 150.405 207.424 135.944 208.242 123.469" stroke="#92CCFF" stroke-width="3" stroke-linecap="round" stroke-linejoin="round"/>
<path d="M156.034 74.8406C153.647 75.0531 144.714 76.4801 146.606 85.94C148.109 93.4654 154.984 92.7962 159.102 91.6482" stroke="#92CCFF" stroke-width="3" stroke-linecap="round" stroke-linejoin="round"/>
<path d="M218.94 57.1195C220.633 70.036 219.85 83.9008 218.525 94.2232" stroke="#92CCFF" stroke-width="3" stroke-linecap="round" stroke-linejoin="round"/>
<path d="M218.525 94.2106C217.97 98.5552 217.317 102.269 216.711 105.012" stroke="#92CCFF" stroke-width="3" stroke-linecap="round" stroke-linejoin="round"/>
<path d="M163.061 77.1017C165.061 79.1249 170.425 90.7888 171.734 96.2275C171.734 96.2275 185.006 91.6578 204.022 91.3787C204.022 91.3787 214.391 91.5912 218.525 92.847C218.525 92.847 217.631 112.106 209.224 122.08C200.818 132.053 183.044 129.263 174.698 123.266C166.351 117.269 164.982 114.408 163.052 107.993C161.121 101.577 156.024 77.6598 156.024 77.6598L163.061 77.1017Z" stroke="#92CCFF" stroke-width="3" stroke-linecap="round" stroke-linejoin="round"/>
<path d="M198.789 108.031C198.789 108.031 203.972 107 206.08 109.062L198.789 108.031Z" fill="white"/>
<path d="M198.789 108.031C198.789 108.031 203.972 107 206.08 109.062" stroke="#92CCFF" stroke-width="3" stroke-linecap="round" stroke-linejoin="round"/>
<path d="M205.395 83.9642L207.322 100.743L201.407 99.2307" stroke="#92CCFF" stroke-width="3" stroke-linecap="round" stroke-linejoin="round"/>
<path d="M211.586 88.5023C212.535 88.5023 213.304 87.3111 213.304 85.8416C213.304 84.3721 212.535 83.1809 211.586 83.1809C210.637 83.1809 209.868 84.3721 209.868 85.8416C209.868 87.3111 210.637 88.5023 211.586 88.5023Z" fill="#92CCFF"/>
<path d="M195.042 88.2105C195.991 88.2105 196.76 87.0193 196.76 85.5498C196.76 84.0804 195.991 82.8892 195.042 82.8892C194.093 82.8892 193.324 84.0804 193.324 85.5498C193.324 87.0193 194.093 88.2105 195.042 88.2105Z" fill="#92CCFF"/>
<path d="M187.59 71.6693C188.457 70.5577 189.607 69.6991 190.919 69.1832C192.231 68.6672 193.657 68.5128 195.049 68.7359" stroke="#92CCFF" stroke-width="3" stroke-linecap="round" stroke-linejoin="round"/>
<path d="M210.834 68.4441C210.834 68.4441 215.589 67.2073 216.791 71.1048" stroke="#92CCFF" stroke-width="3" stroke-linecap="round" stroke-linejoin="round"/>
<path d="M229.854 54.3986C229.435 53.1745 229.911 51.684 230.786 50.184L230.557 49.9272L229.483 52.9398C229.483 52.9398 226.12 54.3891 225.01 50.0857C224.668 48.7696 225.444 47.165 226.681 45.5762L226.646 45.535C221.97 46.6195 212.835 48.3891 212.01 46.5498C210.847 43.9462 227.331 37.036 232.352 34.8161C234.926 33.6903 243.833 31.2453 248.632 30.5476C251.816 30.1426 255.036 30.1074 258.227 30.4429C258.598 27.492 258.023 24.4995 256.585 21.8964C255.029 19.0232 251.777 14.7516 248.889 13.2198C220.268 -1.96732 206.305 23.685 206.305 23.685C206.305 23.685 202.276 12.6839 189.235 12.2907C186.589 12.2194 183.958 12.6889 181.5 13.6704C179.042 14.6519 176.811 16.1248 174.942 17.9989C164.262 28.7083 171.382 40.832 171.382 40.832C171.382 40.832 166.408 38.295 159.701 41.5328C151.687 45.4113 147.655 54.4906 149.738 63.1513C151.957 72.3479 156.033 81.1038 156.033 81.1038C182.077 85.1376 188.734 59.5551 184.898 56.2538C190.674 60.5287 201.065 63.3923 218.664 61.6228C222.693 61.2041 227.635 59.6185 232.665 57.2147C231.692 57.0815 230.561 56.4473 229.854 54.3986Z" fill="#92CCFF"/>
<path d="M254.285 51.9441L258.428 68.6281L281.964 61.664" stroke="#92CCFF" stroke-width="3" stroke-linecap="round" stroke-linejoin="round"/>
<path d="M226.648 44.9687C221.987 46.0987 212.88 47.9424 212.058 46.026C210.899 43.3133 227.331 36.1135 232.336 33.8005C234.902 32.6276 243.782 30.08 248.566 29.3531C254.808 28.4114 277.497 27.8101 280.641 48.9866L284 62.081L261.684 69" stroke="#92CCFF" stroke-width="3" stroke-linecap="round" stroke-linejoin="round"/>
<path d="M260.618 48.7347C257.965 50.4853 248.008 55.1978 243.009 55.0773" stroke="#92CCFF" stroke-width="3" stroke-linecap="round" stroke-linejoin="round"/>
<path d="M234.65 38.4662C234.65 38.4662 223.911 45.8077 225.023 50.1047C226.136 54.4018 229.496 52.9588 229.496 52.9588" stroke="#92CCFF" stroke-width="3" stroke-linecap="round" stroke-linejoin="round"/>
<path d="M237.443 42.8521C237.443 42.8521 228.437 50.203 229.867 54.3986C231.296 58.5942 234.539 56.9007 234.539 56.9007" stroke="#92CCFF" stroke-width="3" stroke-linecap="round" stroke-linejoin="round"/>
<path d="M241.031 48.2019C241.031 48.2019 230.342 57.2178 237.18 59.1237C244.017 61.0296 246.119 59.3552 246.119 59.3552C246.119 59.3552 248.357 55.5497 241.313 54.9979" stroke="#92CCFF" stroke-width="3" stroke-linecap="round" stroke-linejoin="round"/>
<path d="M252.012 70.4547C256.51 76.4198 286.985 71.9261 292 64.22C289.597 60.9219 287.683 62.8024 286.611 60.8553C284.059 56.1808 283.045 54.129 283.045 54.129C277.751 58.6164 269.449 59.4345 263.274 59.3077C260.551 59.2836 257.833 59.0792 255.137 58.6956C255.099 59.1682 254.969 61.0614 254.858 65.4821C254.804 68.0413 253.372 69.1608 252.012 70.4547Z" fill="#92CCFF"/>
<path d="M418.327 176H295.078C294.292 176 293.53 176.265 292.914 176.752C292.297 177.24 291.864 177.921 291.683 178.686L274.55 251.251H229.873C229.873 251.251 227.398 264.044 241.837 264.044H399.184C399.969 264.044 400.732 263.779 401.348 263.291C401.964 262.804 402.398 262.122 402.579 261.358L421.718 180.291C421.839 179.779 421.843 179.246 421.729 178.732C421.615 178.218 421.386 177.737 421.06 177.325C420.734 176.912 420.318 176.578 419.845 176.349C419.372 176.12 418.853 176 418.327 176Z" fill="#92CCFF"/>
<path d="M408.161 203.946C406.32 203.946 404.5 203.564 402.814 202.825C401.128 202.085 399.614 201.004 398.367 199.65C397.12 198.295 396.168 196.697 395.57 194.956C394.971 193.214 394.741 191.368 394.892 189.532C395.367 183.786 395.431 180.247 396.023 177.58C396.835 173.914 403.948 168.868 412.19 162.767C416.524 159.583 419.539 156.618 421.234 153.872C422.928 151.125 423.774 147.719 423.77 143.654C423.77 138.637 422.177 134.689 418.993 131.809C415.808 128.93 411.951 127.488 407.422 127.484C398.426 127.484 392.385 132.25 389.3 141.783C388.285 144.851 386.221 147.462 383.472 149.159C380.723 150.856 377.465 151.53 374.268 151.062C372.221 150.767 370.267 150.012 368.554 148.852C366.84 147.693 365.412 146.16 364.376 144.369C363.341 142.577 362.725 140.574 362.575 138.51C362.425 136.446 362.744 134.375 363.51 132.453C366.454 125.003 370.674 118.906 376.17 114.164C385.281 106.304 396.409 102.372 409.556 102.37C422.971 102.37 434.217 106.234 443.296 113.961C452.375 121.689 456.918 131.484 456.927 143.346C456.927 158.054 449.373 170.357 434.265 180.253C427.691 184.592 423.71 187.981 422.324 190.42C421.789 191.418 421.394 192.485 421.151 193.592C420.466 196.524 418.813 199.14 416.458 201.016C414.103 202.892 411.184 203.919 408.174 203.93L408.161 203.946ZM409.961 243.701H408.744C404.674 243.701 400.771 242.083 397.892 239.204C395.014 236.325 393.396 232.421 393.396 228.349C393.396 226.332 393.793 224.335 394.564 222.472C395.335 220.609 396.466 218.917 397.891 217.491C399.316 216.065 401.008 214.934 402.871 214.162C404.733 213.391 406.729 212.993 408.744 212.993H409.961C411.977 212.993 413.973 213.391 415.835 214.162C417.697 214.934 419.388 216.065 420.813 217.491C422.238 218.917 423.369 220.61 424.14 222.473C424.911 224.336 425.307 226.332 425.307 228.349C425.307 232.42 423.69 236.325 420.812 239.204C417.934 242.083 414.031 243.701 409.961 243.701Z" fill="#DBEEFF"/>
<path d="M95.0958 74.0921C94.6867 74.2691 94.2454 74.3594 93.7997 74.3573C93.3539 74.3552 92.9135 74.2607 92.5061 74.0799C92.0987 73.899 91.7331 73.6357 91.4325 73.3065C91.1319 72.9773 90.9027 72.5894 90.7593 72.1672C90.4138 71.2622 90.1143 70.3403 89.8623 69.405C89.6911 68.5139 90.7815 66.7094 92.0305 64.5593C92.587 63.6869 92.9781 62.7194 93.1843 61.7052C93.2813 60.8443 93.1364 59.9734 92.7659 59.1904C92.5782 58.6904 92.2839 58.2374 91.9035 57.8627C91.523 57.4881 91.0655 57.201 90.5628 57.0212C89.5845 56.6873 88.5152 56.7429 87.5768 57.1766C85.5776 58.0434 84.6943 59.684 84.9267 62.0984C84.9957 62.8771 84.7886 63.6551 84.3418 64.2964C83.8949 64.9376 83.2368 65.4012 82.4827 65.6058C81.9995 65.7374 81.4927 65.7577 81.0005 65.6651C80.5083 65.5725 80.0435 65.3695 79.641 65.0712C79.2386 64.773 78.909 64.3873 78.677 63.9433C78.445 63.4992 78.3167 63.0083 78.3017 62.5075C78.215 60.6878 78.5764 58.8747 79.3541 57.2274C80.622 54.6058 82.7152 52.6618 85.6336 51.3954C88.6133 50.1016 91.4831 49.8764 94.2431 50.72C95.5496 51.0878 96.7552 51.7484 97.7685 52.6517C98.7818 53.555 99.5763 54.6773 100.092 55.9335C101.51 59.1999 101.016 62.6597 98.6112 66.313C97.5672 67.9092 97.0083 69.0445 96.9343 69.719C96.9129 69.9936 96.9289 70.27 96.9818 70.5403C97.1122 71.2574 96.997 71.9975 96.6547 72.641C96.3124 73.2844 95.7631 73.7934 95.0958 74.0858V74.0921ZM99.3181 82.7465L99.0486 82.8638C98.6012 83.0582 98.1198 83.1624 97.6321 83.1705C97.1443 83.1786 96.6598 83.0905 96.2061 82.9111C95.7524 82.7317 95.3385 82.4647 94.9881 82.1252C94.6377 81.7857 94.3576 81.3804 94.1638 80.9325C93.7709 80.0296 93.7525 79.0076 94.1128 78.0911C94.473 77.1747 95.1823 76.4389 96.0848 76.0456L96.3542 75.9283C96.8017 75.7339 97.283 75.6297 97.7708 75.6216C98.2585 75.6135 98.7431 75.7017 99.1967 75.881C99.6504 76.0604 100.064 76.3275 100.415 76.667C100.765 77.0064 101.045 77.4117 101.239 77.8596C101.632 78.7625 101.65 79.7846 101.29 80.701C100.93 81.6174 100.22 82.3532 99.3181 82.7465Z" fill="#DBEEFF"/>
<path d="M111.96 33.4874C111.352 33.4549 110.758 33.2967 110.214 33.0226C109.671 32.7485 109.191 32.3645 108.803 31.8951C108.416 31.4256 108.13 30.8808 107.964 30.2951C107.798 29.7094 107.755 29.0957 107.839 28.4926C108.102 26.6057 108.187 25.4419 108.432 24.573C108.749 23.3806 111.196 21.8457 114.033 19.9873C115.512 19.0169 116.56 18.0941 117.177 17.2188C117.821 16.229 118.175 15.0791 118.201 13.8985C118.292 12.2431 117.839 10.9122 116.841 9.9059C115.85 8.90054 114.511 8.31468 113.101 8.26953C110.142 8.10462 108.065 9.56552 106.869 12.6522C106.477 13.6448 105.749 14.4678 104.812 14.977C103.875 15.4861 102.788 15.6488 101.743 15.4366C101.072 15.3026 100.44 15.0176 99.8953 14.6034C99.3505 14.1891 98.907 13.6563 98.5982 13.0454C98.2895 12.4344 98.1237 11.7611 98.1133 11.0766C98.1029 10.3921 98.2482 9.71414 98.5383 9.09406C99.5489 6.82475 101.101 4.83846 103.059 3.30968C106.203 0.891068 109.941 -0.201959 114.274 0.0305999C118.695 0.275844 122.332 1.75576 125.184 4.47036C128.037 7.18496 129.355 10.4968 129.137 14.4059C128.869 19.2537 126.153 23.1692 120.991 26.1523C118.746 27.4652 117.373 28.5096 116.87 29.2855C116.676 29.6074 116.527 29.9541 116.426 30.3161C116.146 31.2702 115.554 32.1021 114.743 32.6775C113.933 33.2529 112.952 33.5382 111.96 33.4874ZM111.83 46.6164H111.427C110.086 46.5411 108.829 45.9365 107.933 44.9353C107.037 43.934 106.574 42.618 106.647 41.276C106.681 40.6094 106.846 39.956 107.133 39.3533C107.42 38.7507 107.823 38.2106 108.319 37.764C108.815 37.3174 109.394 36.9731 110.023 36.7507C110.652 36.5284 111.319 36.4324 111.985 36.4684L112.388 36.4906C113.054 36.5278 113.707 36.6963 114.308 36.9866C114.91 37.2768 115.448 37.683 115.892 38.1818C116.336 38.6806 116.678 39.2623 116.897 39.8934C117.115 40.5245 117.208 41.1927 117.168 41.8595C117.086 43.1969 116.479 44.4476 115.479 45.3388C114.479 46.2299 113.167 46.6892 111.83 46.6164Z" fill="#DBEEFF"/>
<path d="M2.25586 264H482" stroke="#92CCFF" stroke-width="3" stroke-linecap="round" stroke-linejoin="round"/>
</svg>
