<svg width="32" height="32" viewBox="0 0 32 32" fill="none" xmlns="http://www.w3.org/2000/svg">
<circle opacity="0.5" cx="16" cy="16" r="16" fill="#BBDFFF"/>
<g clip-path="url(#clip0)">
<path d="M19.2727 8H10.5454C9.74172 8 9.09082 8.6509 9.09082 9.45456V19.6364H10.5454V9.45456H19.2727V8V8Z" fill="#49AAFF"/>
<path d="M21.4546 10.9091H13.4546C12.6509 10.9091 12 11.56 12 12.3636V22.5455C12 23.3491 12.6509 24 13.4546 24H21.4546C22.2582 24 22.9091 23.3491 22.9091 22.5455V12.3636C22.9091 11.56 22.2582 10.9091 21.4546 10.9091ZM21.4546 22.5455H13.4546V12.3636H21.4546V22.5455V22.5455Z" fill="#49AAFF"/>
<circle cx="19.2275" cy="8.7275" r="0.7275" fill="#49AAFF"/>
<circle cx="9.81734" cy="19.6275" r="0.7275" fill="#49AAFF"/>
</g>
<defs>
<clipPath id="clip0">
<rect width="16" height="16" fill="white" transform="translate(8 8)"/>
</clipPath>
</defs>
</svg>
